<?xml version="1.0" encoding="UTF-8" standalone="no"?>
<!DOCTYPE svg PUBLIC "-//W3C//DTD SVG 1.1//EN" "http://www.w3.org/Graphics/SVG/1.1/DTD/svg11.dtd">
<svg width="100%" height="100%" viewBox="0 0 960 540" version="1.1" xmlns="http://www.w3.org/2000/svg" xmlns:xlink="http://www.w3.org/1999/xlink" xml:space="preserve" xmlns:serif="http://www.serif.com/" style="fill-rule:evenodd;clip-rule:evenodd;stroke-linejoin:round;stroke-miterlimit:2;">
    <path d="M960,287L606,540L960,540L960,287Z" style="fill-opacity:0.62;"/>
    <path d="M0,185.382L0,540L519.167,540L208.479,359.606L188.75,218.377L0,185.382Z" style="fill-opacity:0.5;"/>
    <path d="M960,149.314L960,287.044L606.937,540L519.167,540L259.583,388.129L287.328,303.913L325.849,256.924L501.255,185.382L589.432,185.382L639.911,207.523L743.443,159.892L844.708,156.512L960,149.314Z" style="fill-opacity:0.39;"/>
    <path d="M0,150L72,152L126,149L207,176L260,161L293,176L329,149L402,168L439.316,149.314L519,167L568,185L501,185L327,256L288,305L260,387L210,363L189,218L0,185.382L0,150Z" style="fill-opacity:0.15;"/>
</svg>
