<?xml version="1.0" encoding="UTF-8" standalone="no"?>
<!DOCTYPE svg PUBLIC "-//W3C//DTD SVG 1.1//EN" "http://www.w3.org/Graphics/SVG/1.1/DTD/svg11.dtd">
<svg width="100%" height="100%" viewBox="0 0 960 960" version="1.1" xmlns="http://www.w3.org/2000/svg" xmlns:xlink="http://www.w3.org/1999/xlink" xml:space="preserve" xmlns:serif="http://www.serif.com/" style="fill-rule:evenodd;clip-rule:evenodd;stroke-linejoin:round;stroke-miterlimit:2;">
    <path d="M405,960L404,960L426,785L424,755L413,735L385,705L332,643L351,578L387,550L423,518L436,522L447,507L435,480L455,464L449,410L464,397L468,383L462,375L471,364L503,352L556,268L587,251L637,258L662,255L738,345L752,426L819,551L840,600L819,675L838,721L839,748L837,783L864,960L848.09,855.698L848,856L864,960L405,960L404.401,956.814L404,960L405,960Z"/>
</svg>
